<svg width="1720" height="626" viewBox="0 0 1720 626" fill="none" xmlns="http://www.w3.org/2000/svg">
<path d="M212.528 124.455L250.236 146.587L250.327 146.641L250.327 250.565L230.845 261.813L230.845 137.72L138.46 191.059C134.295 193.463 130.919 199.311 130.919 204.121L130.919 319.505L110.808 331.117L110.808 227.193L110.898 227.034L148.607 161.36L148.699 161.199L212.435 124.401L212.528 124.455Z" fill="white"/>
<path d="M394.236 237.992L410.576 228.558L436.72 243.652L420.38 253.086L438.354 263.464L422.014 272.898L439.988 283.275L377.569 319.313L359.595 308.935L422.014 272.898L404.04 262.52L420.38 253.086L394.236 237.992ZM359.921 237.049L297.502 273.086L315.476 283.464L299.136 292.898L325.28 307.992L308.94 317.426L282.796 302.332L299.136 292.898L281.162 282.52L297.502 273.086L279.528 262.709L341.947 226.671L359.921 237.049ZM359.921 237.049L376.262 227.615L394.236 237.992L377.896 247.426L359.921 237.049ZM359.595 308.935L343.255 318.369L325.28 307.992L341.621 298.558L359.595 308.935Z" fill="white"/>
<path d="M214.577 293.924L174.669 270.884L174.669 291.929L207.035 310.615L278.994 477.342L317.959 499.839L317.959 480.245L287.793 462.829L214.577 293.924Z" fill="white"/>
<path d="M278.051 330.572L317.959 353.612L317.959 374.657L285.593 355.971L213.634 439.606L174.669 417.11L174.669 397.517L204.835 414.933L278.051 330.572Z" fill="white"/>
<path d="M639.2 175.2V296.8C639.2 298.72 637.76 300 636 300H591.2C589.28 300 588 298.72 588 296.8V277.6C588 275.84 586.56 274.4 584.8 274.4H565.6C563.68 274.4 562.4 273.12 562.4 271.2V200.8C562.4 199.04 560.96 197.6 559.2 197.6H539.84C538.08 197.6 536.64 199.04 536.64 200.8V296.8C536.64 298.72 535.36 300 533.44 300H514.24C512.48 300 511.04 298.72 511.04 296.8V175.2C511.04 173.44 512.48 172 514.24 172H559.2C560.96 172 562.4 173.44 562.4 175.2V194.4C562.4 196.32 563.68 197.6 565.6 197.6H584.8C586.56 197.6 588 199.04 588 200.8V271.2C588 273.12 589.28 274.4 591.2 274.4H610.4C612.16 274.4 613.6 273.12 613.6 271.2V175.2C613.6 173.44 614.88 172 616.8 172H636C637.76 172 639.2 173.44 639.2 175.2ZM776.775 197.6C778.535 197.6 779.975 199.04 779.975 200.8V271.2C779.975 273.12 778.535 274.4 776.775 274.4H757.575C755.655 274.4 754.375 275.84 754.375 277.6V296.8C754.375 298.72 752.935 300 751.175 300H680.615C678.855 300 677.415 298.72 677.415 296.8V277.6C677.415 275.84 676.135 274.4 674.215 274.4H655.015C653.255 274.4 651.815 273.12 651.815 271.2V200.8C651.815 199.04 653.255 197.6 655.015 197.6H674.215C676.135 197.6 677.415 196.32 677.415 194.4V175.2C677.415 173.44 678.855 172 680.615 172H751.175C752.935 172 754.375 173.44 754.375 175.2V194.4C754.375 196.32 755.655 197.6 757.575 197.6H776.775ZM754.375 271.2V200.8C754.375 199.04 752.935 197.6 751.175 197.6H680.615C678.855 197.6 677.415 199.04 677.415 200.8V271.2C677.415 273.12 678.855 274.56 680.615 274.56H751.175C752.935 274.56 754.375 273.12 754.375 271.2ZM895.15 226.4V245.6C895.15 247.52 896.43 248.8 898.35 248.8H917.55C919.31 248.8 920.75 250.24 920.75 252V296.8C920.75 298.72 919.31 300 917.55 300H898.35C896.43 300 895.15 298.72 895.15 296.8V252C895.15 250.24 893.71 248.8 891.95 248.8H821.39C819.63 248.8 818.19 250.24 818.19 252V296.96C818.19 298.72 816.91 300.16 814.99 300.16H795.79C794.03 300.16 792.59 298.72 792.59 296.96V252C792.59 250.24 794.03 248.8 795.79 248.8H814.99C816.91 248.8 818.19 247.52 818.19 245.6V226.4C818.19 224.64 816.91 223.2 814.99 223.2H795.79C794.03 223.2 792.59 221.92 792.59 220V175.2C792.59 173.44 794.03 172 795.79 172H814.99C816.91 172 818.19 173.44 818.19 175.2V220C818.19 221.92 819.63 223.2 821.39 223.2H891.95C893.71 223.2 895.15 221.92 895.15 220V175.2C895.15 173.44 896.43 172 898.35 172H917.55C919.31 172 920.75 173.44 920.75 175.2V220C920.75 221.92 919.31 223.2 917.55 223.2H898.35C896.43 223.2 895.15 224.64 895.15 226.4ZM639.2 355.2V425.6C639.2 427.52 637.76 428.8 636 428.8H616.8C614.88 428.8 613.6 430.24 613.6 432V451.2C613.6 453.12 612.16 454.4 610.4 454.4H591.2C589.28 454.4 588 455.84 588 457.6V476.8C588 478.72 586.56 480 584.8 480H565.6C563.68 480 562.4 478.72 562.4 476.8V457.6C562.4 455.84 560.96 454.4 559.2 454.4H539.84C538.08 454.4 536.64 453.12 536.64 451.2V432C536.64 430.24 535.36 428.8 533.44 428.8H514.24C512.48 428.8 511.04 427.52 511.04 425.6V355.2C511.04 353.44 512.48 352 514.24 352H533.44C535.36 352 536.64 353.44 536.64 355.2V425.6C536.64 427.52 538.08 428.8 539.84 428.8H559.2C560.96 428.8 562.4 430.24 562.4 432V451.2C562.4 453.12 563.68 454.4 565.6 454.4H584.8C586.56 454.4 588 453.12 588 451.2V432C588 430.24 589.28 428.8 591.2 428.8H610.4C612.16 428.8 613.6 427.52 613.6 425.6V355.2C613.6 353.44 614.88 352 616.8 352H636C637.76 352 639.2 353.44 639.2 355.2ZM677.415 400C677.415 401.92 678.855 403.2 680.615 403.2H776.775C778.535 403.2 779.975 404.64 779.975 406.4V425.6C779.975 427.52 778.535 428.8 776.775 428.8H680.615C678.855 428.8 677.415 430.24 677.415 432V451.2C677.415 453.12 678.855 454.4 680.615 454.4H776.775C778.535 454.4 779.975 455.84 779.975 457.6V476.8C779.975 478.72 778.535 480 776.775 480H680.615C678.855 480 677.415 478.72 677.415 476.8V457.6C677.415 455.84 676.135 454.4 674.215 454.4H655.015C653.255 454.4 651.815 453.12 651.815 451.2V380.8C651.815 379.04 653.255 377.6 655.015 377.6H674.215C676.135 377.6 677.415 376.32 677.415 374.4V355.2C677.415 353.44 678.855 352 680.615 352H776.775C778.535 352 779.975 353.44 779.975 355.2V374.4C779.975 376.32 778.535 377.6 776.775 377.6H680.615C678.855 377.6 677.415 379.04 677.415 380.8V400ZM920.75 355.2V476.8C920.75 478.72 919.31 480 917.55 480H872.75C870.83 480 869.55 478.72 869.55 476.8V457.6C869.55 455.84 868.11 454.4 866.35 454.4H847.15C845.23 454.4 843.95 453.12 843.95 451.2V380.8C843.95 379.04 842.51 377.6 840.75 377.6H821.39C819.63 377.6 818.19 379.04 818.19 380.8V476.8C818.19 478.72 816.91 480 814.99 480H795.79C794.03 480 792.59 478.72 792.59 476.8V355.2C792.59 353.44 794.03 352 795.79 352H840.75C842.51 352 843.95 353.44 843.95 355.2V374.4C843.95 376.32 845.23 377.6 847.15 377.6H866.35C868.11 377.6 869.55 379.04 869.55 380.8V451.2C869.55 453.12 870.83 454.4 872.75 454.4H891.95C893.71 454.4 895.15 453.12 895.15 451.2V355.2C895.15 353.44 896.43 352 898.35 352H917.55C919.31 352 920.75 353.44 920.75 355.2ZM1061.53 355.2V374.4C1061.53 376.32 1060.09 377.6 1058.33 377.6H1013.53C1011.61 377.6 1010.33 379.04 1010.33 380.8V476.8C1010.33 478.72 1008.89 480 1007.13 480H987.925C986.005 480 984.725 478.72 984.725 476.8V380.8C984.725 379.04 983.285 377.6 981.525 377.6H936.565C934.805 377.6 933.365 376.32 933.365 374.4V355.2C933.365 353.44 934.805 352 936.565 352H1058.33C1060.09 352 1061.53 353.44 1061.53 355.2ZM1202.3 355.2V451.2C1202.3 453.12 1200.86 454.4 1199.1 454.4H1179.9C1177.98 454.4 1176.7 455.84 1176.7 457.6V476.8C1176.7 478.72 1175.26 480 1173.5 480H1102.94C1101.18 480 1099.74 478.72 1099.74 476.8V457.6C1099.74 455.84 1098.46 454.4 1096.54 454.4H1077.34C1075.58 454.4 1074.14 453.12 1074.14 451.2V355.2C1074.14 353.44 1075.58 352 1077.34 352H1096.54C1098.46 352 1099.74 353.44 1099.74 355.2V451.2C1099.74 453.12 1101.18 454.4 1102.94 454.4H1173.5C1175.26 454.4 1176.7 453.12 1176.7 451.2V355.2C1176.7 353.44 1177.98 352 1179.9 352H1199.1C1200.86 352 1202.3 353.44 1202.3 355.2ZM1320.68 428.8C1318.76 428.8 1317.48 430.24 1317.48 432V451.2C1317.48 453.12 1318.76 454.4 1320.68 454.4H1339.88C1341.64 454.4 1343.08 455.84 1343.08 457.6V476.8C1343.08 478.72 1341.64 480 1339.88 480H1320.68C1318.76 480 1317.48 478.72 1317.48 476.8V457.6C1317.48 455.84 1316.04 454.4 1314.28 454.4H1243.72C1241.96 454.4 1240.52 455.84 1240.52 457.6V476.8C1240.52 478.72 1239.24 480 1237.32 480H1218.12C1216.36 480 1214.92 478.72 1214.92 476.8V355.2C1214.92 353.44 1216.36 352 1218.12 352H1314.28C1316.04 352 1317.48 353.44 1317.48 355.2V374.4C1317.48 376.32 1318.76 377.6 1320.68 377.6H1339.88C1341.64 377.6 1343.08 379.04 1343.08 380.8V425.6C1343.08 427.52 1341.64 428.8 1339.88 428.8H1320.68ZM1314.28 428.8C1316.04 428.8 1317.48 427.52 1317.48 425.6V380.8C1317.48 379.04 1316.04 377.6 1314.28 377.6H1243.72C1241.96 377.6 1240.52 379.04 1240.52 380.8V425.6C1240.52 427.52 1241.96 428.8 1243.72 428.8H1314.28ZM1381.29 400C1381.29 401.92 1382.73 403.2 1384.49 403.2H1480.65C1482.41 403.2 1483.85 404.64 1483.85 406.4V425.6C1483.85 427.52 1482.41 428.8 1480.65 428.8H1384.49C1382.73 428.8 1381.29 430.24 1381.29 432V451.2C1381.29 453.12 1382.73 454.4 1384.49 454.4H1480.65C1482.41 454.4 1483.85 455.84 1483.85 457.6V476.8C1483.85 478.72 1482.41 480 1480.65 480H1384.49C1382.73 480 1381.29 478.72 1381.29 476.8V457.6C1381.29 455.84 1380.01 454.4 1378.09 454.4H1358.89C1357.13 454.4 1355.69 453.12 1355.69 451.2V380.8C1355.69 379.04 1357.13 377.6 1358.89 377.6H1378.09C1380.01 377.6 1381.29 376.32 1381.29 374.4V355.2C1381.29 353.44 1382.73 352 1384.49 352H1480.65C1482.41 352 1483.85 353.44 1483.85 355.2V374.4C1483.85 376.32 1482.41 377.6 1480.65 377.6H1384.49C1382.73 377.6 1381.29 379.04 1381.29 380.8V400ZM1522.06 380.8V400C1522.06 401.92 1523.5 403.2 1525.26 403.2H1595.82C1597.58 403.2 1599.02 404.64 1599.02 406.4V425.6C1599.02 427.52 1600.3 428.8 1602.22 428.8H1621.42C1623.18 428.8 1624.62 430.24 1624.62 432V451.2C1624.62 453.12 1623.18 454.4 1621.42 454.4H1602.22C1600.3 454.4 1599.02 455.84 1599.02 457.6V476.8C1599.02 478.72 1597.58 480 1595.82 480H1499.66C1497.9 480 1496.46 478.72 1496.46 476.8V457.6C1496.46 455.84 1497.9 454.4 1499.66 454.4H1595.82C1597.58 454.4 1599.02 453.12 1599.02 451.2V432C1599.02 430.24 1597.58 428.8 1595.82 428.8H1525.26C1523.5 428.8 1522.06 427.52 1522.06 425.6V406.4C1522.06 404.64 1520.78 403.2 1518.86 403.2H1499.66C1497.9 403.2 1496.46 401.92 1496.46 400V380.8C1496.46 379.04 1497.9 377.6 1499.66 377.6H1518.86C1520.78 377.6 1522.06 376.32 1522.06 374.4V355.2C1522.06 353.44 1523.5 352 1525.26 352H1621.42C1623.18 352 1624.62 353.44 1624.62 355.2V374.4C1624.62 376.32 1623.18 377.6 1621.42 377.6H1525.26C1523.5 377.6 1522.06 379.04 1522.06 380.8Z" fill="white"/>
</svg>
