<svg width="169" height="60" viewBox="0 0 169 60" fill="none" xmlns="http://www.w3.org/2000/svg">
<g clip-path="url(#clip0_103_55)">
<path d="M71.76 22.96V30.88C71.76 31.096 71.598 31.24 71.4 31.24H69.24C69.024 31.24 68.88 31.402 68.88 31.6V33.76C68.88 33.976 68.718 34.12 68.52 34.12H66.36C66.144 34.12 66 34.282 66 34.48V36.64C66 36.856 65.838 37 65.64 37H63.48C63.264 37 63.12 36.856 63.12 36.64V34.48C63.12 34.282 62.958 34.12 62.76 34.12H60.582C60.384 34.12 60.222 33.976 60.222 33.76V31.6C60.222 31.402 60.078 31.24 59.862 31.24H57.702C57.504 31.24 57.342 31.096 57.342 30.88V22.96C57.342 22.762 57.504 22.6 57.702 22.6H59.862C60.078 22.6 60.222 22.762 60.222 22.96V30.88C60.222 31.096 60.384 31.24 60.582 31.24H62.76C62.958 31.24 63.12 31.402 63.12 31.6V33.76C63.12 33.976 63.264 34.12 63.48 34.12H65.64C65.838 34.12 66 33.976 66 33.76V31.6C66 31.402 66.144 31.24 66.36 31.24H68.52C68.718 31.24 68.88 31.096 68.88 30.88V22.96C68.88 22.762 69.024 22.6 69.24 22.6H71.4C71.598 22.6 71.76 22.762 71.76 22.96ZM76.0592 28C76.0592 28.216 76.2212 28.36 76.4192 28.36H87.2372C87.4352 28.36 87.5972 28.522 87.5972 28.72V30.88C87.5972 31.096 87.4352 31.24 87.2372 31.24H76.4192C76.2212 31.24 76.0592 31.402 76.0592 31.6V33.76C76.0592 33.976 76.2212 34.12 76.4192 34.12H87.2372C87.4352 34.12 87.5972 34.282 87.5972 34.48V36.64C87.5972 36.856 87.4352 37 87.2372 37H76.4192C76.2212 37 76.0592 36.856 76.0592 36.64V34.48C76.0592 34.282 75.9152 34.12 75.6992 34.12H73.5392C73.3412 34.12 73.1792 33.976 73.1792 33.76V25.84C73.1792 25.642 73.3412 25.48 73.5392 25.48H75.6992C75.9152 25.48 76.0592 25.336 76.0592 25.12V22.96C76.0592 22.762 76.2212 22.6 76.4192 22.6H87.2372C87.4352 22.6 87.5972 22.762 87.5972 22.96V25.12C87.5972 25.336 87.4352 25.48 87.2372 25.48H76.4192C76.2212 25.48 76.0592 25.642 76.0592 25.84V28ZM103.434 22.96V36.64C103.434 36.856 103.272 37 103.074 37H98.0344C97.8184 37 97.6744 36.856 97.6744 36.64V34.48C97.6744 34.282 97.5124 34.12 97.3144 34.12H95.1544C94.9384 34.12 94.7944 33.976 94.7944 33.76V25.84C94.7944 25.642 94.6324 25.48 94.4344 25.48H92.2564C92.0584 25.48 91.8964 25.642 91.8964 25.84V36.64C91.8964 36.856 91.7524 37 91.5364 37H89.3764C89.1784 37 89.0164 36.856 89.0164 36.64V22.96C89.0164 22.762 89.1784 22.6 89.3764 22.6H94.4344C94.6324 22.6 94.7944 22.762 94.7944 22.96V25.12C94.7944 25.336 94.9384 25.48 95.1544 25.48H97.3144C97.5124 25.48 97.6744 25.642 97.6744 25.84V33.76C97.6744 33.976 97.8184 34.12 98.0344 34.12H100.194C100.392 34.12 100.554 33.976 100.554 33.76V22.96C100.554 22.762 100.698 22.6 100.914 22.6H103.074C103.272 22.6 103.434 22.762 103.434 22.96ZM119.272 22.96V25.12C119.272 25.336 119.11 25.48 118.912 25.48H113.872C113.656 25.48 113.512 25.642 113.512 25.84V36.64C113.512 36.856 113.35 37 113.152 37H110.992C110.776 37 110.632 36.856 110.632 36.64V25.84C110.632 25.642 110.47 25.48 110.272 25.48H105.214C105.016 25.48 104.854 25.336 104.854 25.12V22.96C104.854 22.762 105.016 22.6 105.214 22.6H118.912C119.11 22.6 119.272 22.762 119.272 22.96ZM135.109 22.96V33.76C135.109 33.976 134.947 34.12 134.749 34.12H132.589C132.373 34.12 132.229 34.282 132.229 34.48V36.64C132.229 36.856 132.067 37 131.869 37H123.931C123.733 37 123.571 36.856 123.571 36.64V34.48C123.571 34.282 123.427 34.12 123.211 34.12H121.051C120.853 34.12 120.691 33.976 120.691 33.76V22.96C120.691 22.762 120.853 22.6 121.051 22.6H123.211C123.427 22.6 123.571 22.762 123.571 22.96V33.76C123.571 33.976 123.733 34.12 123.931 34.12H131.869C132.067 34.12 132.229 33.976 132.229 33.76V22.96C132.229 22.762 132.373 22.6 132.589 22.6H134.749C134.947 22.6 135.109 22.762 135.109 22.96ZM148.426 31.24C148.21 31.24 148.066 31.402 148.066 31.6V33.76C148.066 33.976 148.21 34.12 148.426 34.12H150.586C150.784 34.12 150.946 34.282 150.946 34.48V36.64C150.946 36.856 150.784 37 150.586 37H148.426C148.21 37 148.066 36.856 148.066 36.64V34.48C148.066 34.282 147.904 34.12 147.706 34.12H139.768C139.57 34.12 139.408 34.282 139.408 34.48V36.64C139.408 36.856 139.264 37 139.048 37H136.888C136.69 37 136.528 36.856 136.528 36.64V22.96C136.528 22.762 136.69 22.6 136.888 22.6H147.706C147.904 22.6 148.066 22.762 148.066 22.96V25.12C148.066 25.336 148.21 25.48 148.426 25.48H150.586C150.784 25.48 150.946 25.642 150.946 25.84V30.88C150.946 31.096 150.784 31.24 150.586 31.24H148.426ZM147.706 31.24C147.904 31.24 148.066 31.096 148.066 30.88V25.84C148.066 25.642 147.904 25.48 147.706 25.48H139.768C139.57 25.48 139.408 25.642 139.408 25.84V30.88C139.408 31.096 139.57 31.24 139.768 31.24H147.706ZM155.245 28C155.245 28.216 155.407 28.36 155.605 28.36H166.423C166.621 28.36 166.783 28.522 166.783 28.72V30.88C166.783 31.096 166.621 31.24 166.423 31.24H155.605C155.407 31.24 155.245 31.402 155.245 31.6V33.76C155.245 33.976 155.407 34.12 155.605 34.12H166.423C166.621 34.12 166.783 34.282 166.783 34.48V36.64C166.783 36.856 166.621 37 166.423 37H155.605C155.407 37 155.245 36.856 155.245 36.64V34.48C155.245 34.282 155.101 34.12 154.885 34.12H152.725C152.527 34.12 152.365 33.976 152.365 33.76V25.84C152.365 25.642 152.527 25.48 152.725 25.48H154.885C155.101 25.48 155.245 25.336 155.245 25.12V22.96C155.245 22.762 155.407 22.6 155.605 22.6H166.423C166.621 22.6 166.783 22.762 166.783 22.96V25.12C166.783 25.336 166.621 25.48 166.423 25.48H155.605C155.407 25.48 155.245 25.642 155.245 25.84V28Z" fill="white"/>
<path d="M22.7434 8.81439L27.2689 11.4701L27.279 11.477L27.279 23.9477L24.9414 25.2973L24.9414 10.4067L13.8556 16.8071C13.3558 17.0956 12.9507 17.7973 12.9507 18.3744L12.9507 32.2201L10.537 33.6137L10.537 21.143L10.548 21.124L15.0726 13.2431L15.0845 13.2236L22.7324 8.80804L22.7434 8.81439Z" fill="white"/>
<path d="M44.5483 22.439L46.5091 21.307L49.6464 23.1183L47.6856 24.2504L49.8425 25.4957L47.8817 26.6277L50.0386 27.873L42.5483 32.1975L40.3914 30.9523L47.8817 26.6277L45.7248 25.3824L47.6856 24.2504L44.5483 22.439ZM40.4306 22.3258L32.9403 26.6504L35.0972 27.8957L33.1364 29.0277L36.2737 30.839L34.3128 31.9711L31.1755 30.1598L33.1364 29.0277L30.9795 27.7824L32.9403 26.6504L30.7834 25.4051L38.2737 21.0806L40.4306 22.3258ZM40.4306 22.3258L42.3914 21.1938L44.5483 22.439L42.5875 23.5711L40.4306 22.3258ZM40.3914 30.9523L38.4306 32.0843L36.2737 30.839L38.2345 29.707L40.3914 30.9523Z" fill="white"/>
<path d="M22.9892 29.151L18.2003 26.3861L18.2003 28.9115L22.0842 31.1539L30.7193 51.1611L35.3951 53.8607L35.3951 51.5095L31.7751 49.4195L22.9892 29.151Z" fill="white"/>
<path d="M30.6062 33.5486L35.3951 36.3135L35.3951 38.8389L31.5112 36.5965L22.876 46.6328L18.2003 43.9333L18.2003 41.582L21.8202 43.672L30.6062 33.5486Z" fill="white"/>
</g>
<defs>
<clipPath id="clip0_103_55">
<rect width="168.462" height="60" fill="white" transform="translate(-0.000305176)"/>
</clipPath>
</defs>
</svg>
